<mxfile host="app.diagrams.net" modified="2023-12-26T23:42:22.508Z" agent="Mozilla/5.0 (Windows NT 10.0; Win64; x64) AppleWebKit/537.36 (KHTML, like Gecko) Chrome/119.0.0.0 Safari/537.36" etag="rePVkw4pWeQ-MwyiQOje" version="22.1.12" type="device">
  <diagram name="Страница — 1" id="yZ29DvzHHm1U3-0xNSfl">
    <mxGraphModel dx="989" dy="545" grid="0" gridSize="10" guides="1" tooltips="1" connect="1" arrows="1" fold="1" page="1" pageScale="1" pageWidth="827" pageHeight="1169" math="0" shadow="0">
      <root>
        <mxCell id="0" />
        <mxCell id="1" parent="0" />
        <mxCell id="Akqc7R1A0ePdEi_RQWar-29" value="" style="ellipse;whiteSpace=wrap;html=1;aspect=fixed;fillColor=none;" vertex="1" parent="1">
          <mxGeometry x="480" y="280" width="240" height="240" as="geometry" />
        </mxCell>
        <mxCell id="Akqc7R1A0ePdEi_RQWar-2" value="" style="ellipse;whiteSpace=wrap;html=1;aspect=fixed;fillColor=none;" vertex="1" parent="1">
          <mxGeometry x="160" y="280" width="240" height="240" as="geometry" />
        </mxCell>
        <mxCell id="Akqc7R1A0ePdEi_RQWar-3" value="" style="endArrow=none;html=1;rounded=0;" edge="1" parent="1">
          <mxGeometry width="50" height="50" relative="1" as="geometry">
            <mxPoint x="280" y="520" as="sourcePoint" />
            <mxPoint x="280" y="280" as="targetPoint" />
          </mxGeometry>
        </mxCell>
        <mxCell id="Akqc7R1A0ePdEi_RQWar-4" value="" style="endArrow=none;html=1;rounded=0;exitX=0;exitY=0.5;exitDx=0;exitDy=0;" edge="1" parent="1" source="Akqc7R1A0ePdEi_RQWar-1">
          <mxGeometry width="50" height="50" relative="1" as="geometry">
            <mxPoint x="160" y="400" as="sourcePoint" />
            <mxPoint x="400" y="400" as="targetPoint" />
          </mxGeometry>
        </mxCell>
        <mxCell id="Akqc7R1A0ePdEi_RQWar-5" value="" style="endArrow=none;html=1;rounded=0;entryX=1;entryY=0;entryDx=0;entryDy=0;exitX=0;exitY=1;exitDx=0;exitDy=0;" edge="1" parent="1" source="Akqc7R1A0ePdEi_RQWar-2" target="Akqc7R1A0ePdEi_RQWar-2">
          <mxGeometry width="50" height="50" relative="1" as="geometry">
            <mxPoint x="120" y="560" as="sourcePoint" />
            <mxPoint x="440" y="240" as="targetPoint" />
          </mxGeometry>
        </mxCell>
        <mxCell id="Akqc7R1A0ePdEi_RQWar-6" value="" style="endArrow=none;html=1;rounded=0;entryX=0;entryY=0;entryDx=0;entryDy=0;exitX=1;exitY=1;exitDx=0;exitDy=0;" edge="1" parent="1" source="Akqc7R1A0ePdEi_RQWar-2" target="Akqc7R1A0ePdEi_RQWar-1">
          <mxGeometry width="50" height="50" relative="1" as="geometry">
            <mxPoint x="440" y="560" as="sourcePoint" />
            <mxPoint x="120" y="240" as="targetPoint" />
          </mxGeometry>
        </mxCell>
        <mxCell id="Akqc7R1A0ePdEi_RQWar-7" value="" style="endArrow=none;html=1;rounded=0;entryX=0.034;entryY=0.313;entryDx=0;entryDy=0;entryPerimeter=0;exitX=0.963;exitY=0.685;exitDx=0;exitDy=0;exitPerimeter=0;" edge="1" parent="1" source="Akqc7R1A0ePdEi_RQWar-2" target="Akqc7R1A0ePdEi_RQWar-1">
          <mxGeometry width="50" height="50" relative="1" as="geometry">
            <mxPoint x="480" y="480" as="sourcePoint" />
            <mxPoint x="80" y="320" as="targetPoint" />
          </mxGeometry>
        </mxCell>
        <mxCell id="Akqc7R1A0ePdEi_RQWar-8" value="" style="endArrow=none;html=1;rounded=0;entryX=0.316;entryY=0.036;entryDx=0;entryDy=0;entryPerimeter=0;exitX=0.685;exitY=0.964;exitDx=0;exitDy=0;exitPerimeter=0;" edge="1" parent="1" source="Akqc7R1A0ePdEi_RQWar-2" target="Akqc7R1A0ePdEi_RQWar-1">
          <mxGeometry width="50" height="50" relative="1" as="geometry">
            <mxPoint x="360" y="600" as="sourcePoint" />
            <mxPoint x="200" y="200" as="targetPoint" />
          </mxGeometry>
        </mxCell>
        <mxCell id="Akqc7R1A0ePdEi_RQWar-9" value="" style="endArrow=none;html=1;rounded=0;entryX=0.686;entryY=0.037;entryDx=0;entryDy=0;entryPerimeter=0;exitX=0.314;exitY=0.964;exitDx=0;exitDy=0;exitPerimeter=0;" edge="1" parent="1" source="Akqc7R1A0ePdEi_RQWar-2" target="Akqc7R1A0ePdEi_RQWar-2">
          <mxGeometry width="50" height="50" relative="1" as="geometry">
            <mxPoint x="200" y="600" as="sourcePoint" />
            <mxPoint x="360" y="200" as="targetPoint" />
          </mxGeometry>
        </mxCell>
        <mxCell id="Akqc7R1A0ePdEi_RQWar-10" value="" style="endArrow=none;html=1;rounded=0;entryX=0.963;entryY=0.314;entryDx=0;entryDy=0;entryPerimeter=0;" edge="1" parent="1" source="Akqc7R1A0ePdEi_RQWar-1" target="Akqc7R1A0ePdEi_RQWar-2">
          <mxGeometry width="50" height="50" relative="1" as="geometry">
            <mxPoint x="80" y="480" as="sourcePoint" />
            <mxPoint x="480" y="320" as="targetPoint" />
          </mxGeometry>
        </mxCell>
        <mxCell id="Akqc7R1A0ePdEi_RQWar-1" value="" style="ellipse;whiteSpace=wrap;html=1;aspect=fixed;fillColor=default;" vertex="1" parent="1">
          <mxGeometry x="200" y="320" width="160" height="160" as="geometry" />
        </mxCell>
        <mxCell id="Akqc7R1A0ePdEi_RQWar-12" value="&lt;b&gt;&lt;font style=&quot;font-size: 16px;&quot; face=&quot;Verdana&quot;&gt;1&lt;/font&gt;&lt;/b&gt;" style="text;html=1;strokeColor=none;fillColor=none;align=center;verticalAlign=middle;whiteSpace=wrap;rounded=0;" vertex="1" parent="1">
          <mxGeometry x="289" y="291" width="20" height="20" as="geometry" />
        </mxCell>
        <mxCell id="Akqc7R1A0ePdEi_RQWar-13" value="&lt;b&gt;&lt;font style=&quot;font-size: 16px;&quot; face=&quot;Verdana&quot;&gt;2&lt;/font&gt;&lt;/b&gt;" style="text;html=1;strokeColor=none;fillColor=none;align=center;verticalAlign=middle;whiteSpace=wrap;rounded=0;" vertex="1" parent="1">
          <mxGeometry x="324" y="305" width="20" height="20" as="geometry" />
        </mxCell>
        <mxCell id="Akqc7R1A0ePdEi_RQWar-14" value="&lt;b&gt;&lt;font style=&quot;font-size: 16px;&quot; face=&quot;Verdana&quot;&gt;3&lt;/font&gt;&lt;/b&gt;" style="text;html=1;strokeColor=none;fillColor=none;align=center;verticalAlign=middle;whiteSpace=wrap;rounded=0;" vertex="1" parent="1">
          <mxGeometry x="354" y="335" width="20" height="20" as="geometry" />
        </mxCell>
        <mxCell id="Akqc7R1A0ePdEi_RQWar-15" value="&lt;b&gt;&lt;font style=&quot;font-size: 14px;&quot; face=&quot;Verdana&quot;&gt;...&lt;/font&gt;&lt;/b&gt;" style="text;html=1;strokeColor=none;fillColor=none;align=center;verticalAlign=middle;whiteSpace=wrap;rounded=0;" vertex="1" parent="1">
          <mxGeometry x="369" y="371" width="20" height="20" as="geometry" />
        </mxCell>
        <mxCell id="Akqc7R1A0ePdEi_RQWar-16" value="&lt;b&gt;&lt;font style=&quot;font-size: 16px;&quot; face=&quot;Verdana&quot;&gt;M&lt;/font&gt;&lt;/b&gt;" style="text;html=1;strokeColor=none;fillColor=none;align=center;verticalAlign=middle;whiteSpace=wrap;rounded=0;" vertex="1" parent="1">
          <mxGeometry x="251" y="488" width="20" height="20" as="geometry" />
        </mxCell>
        <mxCell id="Akqc7R1A0ePdEi_RQWar-17" value="&lt;b&gt;&lt;font style=&quot;font-size: 14px;&quot; face=&quot;Verdana&quot;&gt;...&lt;/font&gt;&lt;/b&gt;" style="text;html=1;strokeColor=none;fillColor=none;align=center;verticalAlign=middle;whiteSpace=wrap;rounded=0;" vertex="1" parent="1">
          <mxGeometry x="289" y="488" width="20" height="20" as="geometry" />
        </mxCell>
        <mxCell id="Akqc7R1A0ePdEi_RQWar-20" value="&lt;font style=&quot;font-size: 16px;&quot; face=&quot;Verdana&quot;&gt;begin&lt;/font&gt;" style="text;html=1;strokeColor=none;fillColor=none;align=center;verticalAlign=middle;whiteSpace=wrap;rounded=0;rotation=0;" vertex="1" parent="1">
          <mxGeometry x="294" y="255" width="60" height="20" as="geometry" />
        </mxCell>
        <mxCell id="Akqc7R1A0ePdEi_RQWar-21" value="&lt;font style=&quot;font-size: 16px;&quot; face=&quot;Verdana&quot;&gt;end&lt;/font&gt;" style="text;html=1;strokeColor=none;fillColor=none;align=center;verticalAlign=middle;whiteSpace=wrap;rounded=0;rotation=0;" vertex="1" parent="1">
          <mxGeometry x="173" y="504" width="40" height="20" as="geometry" />
        </mxCell>
        <mxCell id="Akqc7R1A0ePdEi_RQWar-26" value="" style="endArrow=blockThin;html=1;rounded=0;endFill=1;entryX=0.001;entryY=0.477;entryDx=0;entryDy=0;entryPerimeter=0;exitX=0;exitY=0.518;exitDx=0;exitDy=0;exitPerimeter=0;" edge="1" parent="1" source="Akqc7R1A0ePdEi_RQWar-2" target="Akqc7R1A0ePdEi_RQWar-2">
          <mxGeometry width="50" height="50" relative="1" as="geometry">
            <mxPoint x="140" y="410" as="sourcePoint" />
            <mxPoint x="140" y="391" as="targetPoint" />
          </mxGeometry>
        </mxCell>
        <mxCell id="Akqc7R1A0ePdEi_RQWar-30" value="" style="endArrow=none;html=1;rounded=0;" edge="1" parent="1">
          <mxGeometry width="50" height="50" relative="1" as="geometry">
            <mxPoint x="600" y="520" as="sourcePoint" />
            <mxPoint x="600" y="280" as="targetPoint" />
          </mxGeometry>
        </mxCell>
        <mxCell id="Akqc7R1A0ePdEi_RQWar-31" value="" style="endArrow=none;html=1;rounded=0;exitX=0;exitY=0.5;exitDx=0;exitDy=0;" edge="1" parent="1" source="Akqc7R1A0ePdEi_RQWar-29">
          <mxGeometry width="50" height="50" relative="1" as="geometry">
            <mxPoint x="480" y="400" as="sourcePoint" />
            <mxPoint x="720" y="400" as="targetPoint" />
          </mxGeometry>
        </mxCell>
        <mxCell id="Akqc7R1A0ePdEi_RQWar-32" value="" style="endArrow=none;html=1;rounded=0;entryX=1;entryY=0;entryDx=0;entryDy=0;exitX=0;exitY=1;exitDx=0;exitDy=0;" edge="1" parent="1" source="Akqc7R1A0ePdEi_RQWar-29" target="Akqc7R1A0ePdEi_RQWar-29">
          <mxGeometry width="50" height="50" relative="1" as="geometry">
            <mxPoint x="440" y="560" as="sourcePoint" />
            <mxPoint x="760" y="240" as="targetPoint" />
          </mxGeometry>
        </mxCell>
        <mxCell id="Akqc7R1A0ePdEi_RQWar-33" value="" style="endArrow=none;html=1;rounded=0;entryX=0;entryY=0;entryDx=0;entryDy=0;exitX=1;exitY=1;exitDx=0;exitDy=0;" edge="1" parent="1" source="Akqc7R1A0ePdEi_RQWar-29" target="Akqc7R1A0ePdEi_RQWar-29">
          <mxGeometry width="50" height="50" relative="1" as="geometry">
            <mxPoint x="760" y="560" as="sourcePoint" />
            <mxPoint x="440" y="240" as="targetPoint" />
          </mxGeometry>
        </mxCell>
        <mxCell id="Akqc7R1A0ePdEi_RQWar-34" value="" style="endArrow=none;html=1;rounded=0;entryX=0.036;entryY=0.314;entryDx=0;entryDy=0;entryPerimeter=0;exitX=0.963;exitY=0.685;exitDx=0;exitDy=0;exitPerimeter=0;" edge="1" parent="1" source="Akqc7R1A0ePdEi_RQWar-29" target="Akqc7R1A0ePdEi_RQWar-29">
          <mxGeometry width="50" height="50" relative="1" as="geometry">
            <mxPoint x="800" y="480" as="sourcePoint" />
            <mxPoint x="400" y="320" as="targetPoint" />
          </mxGeometry>
        </mxCell>
        <mxCell id="Akqc7R1A0ePdEi_RQWar-35" value="" style="endArrow=none;html=1;rounded=0;entryX=0.316;entryY=0.035;entryDx=0;entryDy=0;entryPerimeter=0;exitX=0.685;exitY=0.964;exitDx=0;exitDy=0;exitPerimeter=0;" edge="1" parent="1" source="Akqc7R1A0ePdEi_RQWar-29" target="Akqc7R1A0ePdEi_RQWar-29">
          <mxGeometry width="50" height="50" relative="1" as="geometry">
            <mxPoint x="680" y="600" as="sourcePoint" />
            <mxPoint x="520" y="200" as="targetPoint" />
          </mxGeometry>
        </mxCell>
        <mxCell id="Akqc7R1A0ePdEi_RQWar-36" value="" style="endArrow=none;html=1;rounded=0;entryX=0.686;entryY=0.037;entryDx=0;entryDy=0;entryPerimeter=0;exitX=0.314;exitY=0.964;exitDx=0;exitDy=0;exitPerimeter=0;" edge="1" parent="1" source="Akqc7R1A0ePdEi_RQWar-29" target="Akqc7R1A0ePdEi_RQWar-29">
          <mxGeometry width="50" height="50" relative="1" as="geometry">
            <mxPoint x="520" y="600" as="sourcePoint" />
            <mxPoint x="680" y="200" as="targetPoint" />
          </mxGeometry>
        </mxCell>
        <mxCell id="Akqc7R1A0ePdEi_RQWar-37" value="" style="endArrow=none;html=1;rounded=0;entryX=0.963;entryY=0.314;entryDx=0;entryDy=0;entryPerimeter=0;exitX=0.036;exitY=0.685;exitDx=0;exitDy=0;exitPerimeter=0;" edge="1" parent="1" source="Akqc7R1A0ePdEi_RQWar-29" target="Akqc7R1A0ePdEi_RQWar-29">
          <mxGeometry width="50" height="50" relative="1" as="geometry">
            <mxPoint x="400" y="480" as="sourcePoint" />
            <mxPoint x="800" y="320" as="targetPoint" />
          </mxGeometry>
        </mxCell>
        <mxCell id="Akqc7R1A0ePdEi_RQWar-39" value="&lt;b&gt;&lt;font style=&quot;font-size: 16px;&quot; face=&quot;Verdana&quot;&gt;N&lt;/font&gt;&lt;/b&gt;" style="text;html=1;strokeColor=none;fillColor=none;align=center;verticalAlign=middle;whiteSpace=wrap;rounded=0;" vertex="1" parent="1">
          <mxGeometry x="609" y="291" width="20" height="20" as="geometry" />
        </mxCell>
        <mxCell id="Akqc7R1A0ePdEi_RQWar-40" value="&lt;b&gt;&lt;font style=&quot;font-size: 16px;&quot; face=&quot;Verdana&quot;&gt;2&lt;/font&gt;&lt;/b&gt;" style="text;html=1;strokeColor=none;fillColor=none;align=center;verticalAlign=middle;whiteSpace=wrap;rounded=0;" vertex="1" parent="1">
          <mxGeometry x="644" y="305" width="20" height="20" as="geometry" />
        </mxCell>
        <mxCell id="Akqc7R1A0ePdEi_RQWar-41" value="&lt;b&gt;&lt;font style=&quot;font-size: 16px;&quot; face=&quot;Verdana&quot;&gt;3&lt;/font&gt;&lt;/b&gt;" style="text;html=1;strokeColor=none;fillColor=none;align=center;verticalAlign=middle;whiteSpace=wrap;rounded=0;" vertex="1" parent="1">
          <mxGeometry x="674" y="335" width="20" height="20" as="geometry" />
        </mxCell>
        <mxCell id="Akqc7R1A0ePdEi_RQWar-42" value="&lt;b&gt;&lt;font style=&quot;font-size: 14px;&quot; face=&quot;Verdana&quot;&gt;...&lt;/font&gt;&lt;/b&gt;" style="text;html=1;strokeColor=none;fillColor=none;align=center;verticalAlign=middle;whiteSpace=wrap;rounded=0;" vertex="1" parent="1">
          <mxGeometry x="689" y="371" width="20" height="20" as="geometry" />
        </mxCell>
        <mxCell id="Akqc7R1A0ePdEi_RQWar-45" value="&lt;font style=&quot;font-size: 16px;&quot; face=&quot;Verdana&quot;&gt;begin/end&lt;/font&gt;" style="text;html=1;strokeColor=none;fillColor=none;align=center;verticalAlign=middle;whiteSpace=wrap;rounded=0;rotation=0;" vertex="1" parent="1">
          <mxGeometry x="670" y="275" width="86" height="20" as="geometry" />
        </mxCell>
        <mxCell id="Akqc7R1A0ePdEi_RQWar-48" value="&lt;b&gt;&lt;font style=&quot;font-size: 14px;&quot; face=&quot;Verdana&quot;&gt;...&lt;/font&gt;&lt;/b&gt;" style="text;html=1;strokeColor=none;fillColor=none;align=center;verticalAlign=middle;whiteSpace=wrap;rounded=0;" vertex="1" parent="1">
          <mxGeometry x="572" y="291" width="20" height="20" as="geometry" />
        </mxCell>
        <mxCell id="Akqc7R1A0ePdEi_RQWar-38" value="" style="ellipse;whiteSpace=wrap;html=1;aspect=fixed;fillColor=default;" vertex="1" parent="1">
          <mxGeometry x="520" y="320" width="160" height="160" as="geometry" />
        </mxCell>
        <mxCell id="Akqc7R1A0ePdEi_RQWar-49" value="" style="endArrow=blockThin;html=1;rounded=0;endFill=1;" edge="1" parent="1">
          <mxGeometry width="50" height="50" relative="1" as="geometry">
            <mxPoint x="420" y="400" as="sourcePoint" />
            <mxPoint x="460" y="400" as="targetPoint" />
          </mxGeometry>
        </mxCell>
        <mxCell id="Akqc7R1A0ePdEi_RQWar-50" value="" style="endArrow=none;html=1;rounded=0;exitX=0.5;exitY=0;exitDx=0;exitDy=0;entryX=0.5;entryY=0;entryDx=0;entryDy=0;strokeWidth=3;" edge="1" parent="1" source="Akqc7R1A0ePdEi_RQWar-1" target="Akqc7R1A0ePdEi_RQWar-2">
          <mxGeometry width="50" height="50" relative="1" as="geometry">
            <mxPoint x="250" y="280" as="sourcePoint" />
            <mxPoint x="300" y="230" as="targetPoint" />
          </mxGeometry>
        </mxCell>
        <mxCell id="Akqc7R1A0ePdEi_RQWar-51" value="" style="endArrow=none;html=1;rounded=0;exitX=0.685;exitY=0.039;exitDx=0;exitDy=0;exitPerimeter=0;entryX=0.685;entryY=0.036;entryDx=0;entryDy=0;entryPerimeter=0;strokeWidth=3;" edge="1" parent="1" source="Akqc7R1A0ePdEi_RQWar-38" target="Akqc7R1A0ePdEi_RQWar-29">
          <mxGeometry width="50" height="50" relative="1" as="geometry">
            <mxPoint x="644" y="330" as="sourcePoint" />
            <mxPoint x="664" y="240" as="targetPoint" />
          </mxGeometry>
        </mxCell>
        <mxCell id="Akqc7R1A0ePdEi_RQWar-52" value="" style="endArrow=none;html=1;rounded=0;entryX=0.313;entryY=0.965;entryDx=0;entryDy=0;entryPerimeter=0;exitX=0.313;exitY=0.964;exitDx=0;exitDy=0;exitPerimeter=0;strokeWidth=3;" edge="1" parent="1" source="Akqc7R1A0ePdEi_RQWar-2" target="Akqc7R1A0ePdEi_RQWar-1">
          <mxGeometry width="50" height="50" relative="1" as="geometry">
            <mxPoint x="220" y="610" as="sourcePoint" />
            <mxPoint x="270" y="560" as="targetPoint" />
          </mxGeometry>
        </mxCell>
      </root>
    </mxGraphModel>
  </diagram>
</mxfile>
